<?xml version="1.0" standalone="no"?><!DOCTYPE svg PUBLIC "-//W3C//DTD SVG 1.1//EN" "http://www.w3.org/Graphics/SVG/1.1/DTD/svg11.dtd"><svg t="1598496069554" class="icon" viewBox="0 0 2633 1024" version="1.1" xmlns="http://www.w3.org/2000/svg" p-id="2401" width="658.25" height="256" xmlns:xlink="http://www.w3.org/1999/xlink"><defs><style type="text/css"></style></defs><path d="M760.685714 430.08c4.388571 8.777143 8.777143 16.091429 11.702857 24.868571-48.274286 0-95.085714-1.462857-143.36 0-11.702857 24.868571-21.942857 54.125714-33.645714 78.994286l-26.331428 61.44s-1.462857 0-1.462858-1.462857c-73.142857-43.885714-77.531429-163.84 7.314286-206.262857 62.902857-30.72 141.897143-23.405714 185.782857 42.422857M1875.382857 599.771429c8.777143-1.462857 16.091429 1.462857 20.48-2.925715 4.388571-1.462857 8.777143-4.388571 10.24-10.24v-4.388571c0-5.851429-7.314286-8.777143-8.777143-11.702857-1.462857-1.462857 0-1.462857 0-4.388572 0-10.24 10.24-17.554286 5.851429-27.794285 0-1.462857-1.462857-1.462857-1.462857-2.925715-5.851429-7.314286-20.48-5.851429-29.257143-5.851428 0-17.554286 55.588571-38.034286 58.514286-67.291429-4.388571 0 0-2.925714-4.388572-2.925714-2.925714 0-13.165714 2.925714-14.628571 2.925714-23.405714 2.925714-14.628571-14.628571-10.24-23.405714 0-1.462857 1.462857-4.388571 1.462857-5.851429 0-4.388571 0-8.777143-1.462857-10.24-2.925714-1.462857-11.702857-2.925714-21.942857 1.462857h-4.388572c-1.462857 0-4.388571-1.462857-5.851428-1.462857-4.388571-7.314286 2.925714-20.48 11.702857-29.257143 11.702857-13.165714 29.257143-27.794286 21.942857-36.571428-1.462857-4.388571-8.777143-5.851429-20.48-5.851429v1.462857c-1.462857 1.462857-7.314286 1.462857-8.777143 2.925715-2.925714 1.462857-1.462857 2.925714-4.388571 4.388571-5.851429 7.314286-10.24 14.628571-16.091429 23.405714l-13.165714 17.554286c-8.777143 8.777143-14.628571 17.554286-23.405715 26.331429-7.314286 8.777143-17.554286 17.554286-24.868571 24.868571h-1.462857v1.462857h-1.462857c0-5.851429-5.851429-2.925714 0-27.794285v-13.165715c-1.462857-5.851429-5.851429-10.24-10.24-14.628571-4.388571-4.388571-7.314286-7.314286-13.165715-8.777143l-1.462857 1.462857c-14.628571 8.777143-14.628571 26.331429-14.628571 39.497143 0 8.777143 1.462857 13.165714 1.462857 19.017143-4.388571 7.314286-14.628571 8.777143-23.405714 11.702857-11.702857 4.388571-20.48 8.777143-16.091429 26.331429 1.462857 2.925714 10.24 2.925714 11.702857 7.314285 1.462857 1.462857 4.388571 4.388571 4.388572 5.851429 0 2.925714-2.925714 5.851429-4.388572 8.777143-8.777143 21.942857-45.348571 39.497143-46.811428 64.365714 1.462857 4.388571 2.925714 8.777143 4.388571 11.702857 4.388571 2.925714 7.314286 7.314286 10.24 7.314286 10.24 1.462857 17.554286-8.777143 23.405714-5.851429 2.925714 2.925714 4.388571 5.851429 4.388572 11.702857 2.925714 5.851429 0 4.388571 13.165714 13.165715 4.388571 2.925714 8.777143 5.851429 14.628572 5.851428 4.388571 0 5.851429-1.462857 8.777142-4.388571 10.24-10.24 2.925714-40.96 4.388572-58.514286 2.925714-16.091429 26.331429-35.108571 48.274286-45.348571 13.165714-5.851429 23.405714-7.314286 30.72-8.777143 0 7.314286-14.628571 16.091429-19.017143 20.48v2.925714c5.851429 0 17.554286-4.388571 27.794285-10.24 16.091429-10.24 32.182857-27.794286 35.108572-24.868571 0 1.462857 2.925714 1.462857 2.925714 2.925714-1.462857 7.314286-10.24 16.091429-19.017143 27.794286-10.24 7.314286-11.702857 10.24-36.571428 21.942857-17.554286 11.702857-29.257143 16.091429-19.017143 39.497143 1.462857 1.462857 1.462857 2.925714 1.462857 2.925714 16.091429 8.777143 21.942857-29.257143 54.125714-33.645714 4.388571 0 16.091429 4.388571 2.925715 10.24-11.702857 7.314286-27.794286 1.462857-26.331429 39.497143 5.851429 4.388571 14.628571 5.851429 32.182857 0m4.388572-143.36c-8.777143 21.942857-39.497143 21.942857-57.051429 27.794285-1.462857 0-2.925714 1.462857-4.388571 1.462857-2.925714 1.462857-7.314286 2.925714-10.24 4.388572h-1.462858 1.462858s-2.925714 1.462857-2.925715 0c-1.462857-1.462857-1.462857-4.388571-1.462857-5.851429 0-5.851429-2.925714-13.165714-1.462857-17.554285 0-4.388571 5.851429-13.165714 13.165714-20.48 2.925714-2.925714 7.314286-5.851429 10.24-8.777143 2.925714-4.388571 8.777143-5.851429 11.702857-7.314286 2.925714 1.462857 4.388571 1.462857 5.851429 2.925714 1.462857 1.462857 2.925714 5.851429 4.388571 5.851429 2.925714 1.462857 4.388571 1.462857 7.314286 1.462857 4.388571 0 14.628571-2.925714 21.942857-2.925714v1.462857c0 1.462857 1.462857 4.388571 1.462857 5.851428 2.925714 5.851429 1.462857 8.777143 1.462858 11.702858" fill="#f6f6f6" p-id="2402"></path><path d="M2100.662857 431.542857c-7.314286-5.851429-13.165714-2.925714-20.48 0-4.388571 1.462857-11.702857 5.851429-16.091428 4.388572-1.462857-1.462857-2.925714-1.462857-2.925715-2.925715-1.462857-4.388571 0-11.702857-2.925714-14.628571-1.462857-1.462857-7.314286-2.925714-11.702857-2.925714v1.462857c-10.24 1.462857-21.942857 10.24-27.794286 17.554285v2.925715c0 1.462857 2.925714 0 2.925714 1.462857 2.925714 8.777143-8.777143 17.554286-14.628571 23.405714-1.462857 1.462857-5.851429-2.925714-5.851429-1.462857 0 0 0 13.165714-8.777142 17.554286-7.314286 2.925714-8.777143 7.314286-14.628572 7.314285-11.702857 4.388571-14.628571 13.165714-14.628571 13.165715 0 2.925714 1.462857 4.388571 1.462857 5.851428 13.165714 2.925714 16.091429-4.388571 21.942857-1.462857 7.314286 11.702857-1.462857 23.405714-2.925714 29.257143-4.388571 11.702857-5.851429 20.48-13.165715 30.72-17.554286 29.257143-46.811429 57.051429-74.605714 74.605714-7.314286 4.388571-16.091429 8.777143-23.405714 13.165715-4.388571 2.925714-10.24 5.851429-14.628572 8.777142-1.462857 1.462857-1.462857 2.925714-2.925714 4.388572h-1.462857v1.462857c5.851429 0 14.628571-1.462857 23.405714-2.925714 13.165714-4.388571 39.497143-11.702857 57.051429-17.554286 16.091429-5.851429 23.405714-10.24 32.182857-19.017143 4.388571-5.851429 5.851429-10.24 11.702857-17.554286 10.24-13.165714 24.868571-27.794286 33.645714-45.348571 2.925714-1.462857 5.851429 0 8.777143 0 2.925714 0 7.314286 0 10.24-1.462857 13.165714-2.925714 26.331429-8.777143 38.034286-19.017143 8.777143-7.314286 17.554286-23.405714 26.331429-30.72 0 0 1.462857-1.462857 2.925714-1.462857 2.925714-4.388571 5.851429-10.24 7.314286-16.091429 2.925714-29.257143 8.777143-52.662857-4.388572-62.902857m-8.777143 33.645714c-2.925714 16.091429-7.314286 24.868571-17.554285 35.108572-8.777143 8.777143-19.017143 17.554286-29.257143 23.405714-5.851429 2.925714-10.24 4.388571-16.091429 5.851429h-1.462857c0-10.24 5.851429-20.48 8.777143-33.645715 2.925714-7.314286 4.388571-14.628571 8.777143-21.942857 7.314286-14.628571 20.48-26.331429 33.645714-29.257143 2.925714 1.462857 2.925714-1.462857 4.388571 0 1.462857 1.462857 5.851429 2.925714 7.314286 8.777143 1.462857 2.925714 2.925714 10.24 1.462857 11.702857M1050.331429 491.52c-32.182857 0-64.365714 0-95.085715 1.462857-2.925714 8.777143-5.851429 17.554286-7.314285 24.868572v1.462857h40.96c0 5.851429-2.925714 16.091429-5.851429 26.331428-2.925714 11.702857-5.851429 23.405714-10.24 27.794286-5.851429 5.851429-17.554286 2.925714-24.868571 2.925714-14.628571 0-29.257143 1.462857-39.497143-4.388571-8.777143-4.388571-13.165714-14.628571-13.165715-30.72-1.462857-36.571429 14.628571-86.308571 48.274286-98.011429 11.702857-4.388571 27.794286-2.925714 46.811429-2.925714h67.291428c1.462857-8.777143 4.388571-17.554286 5.851429-26.331429H1053.257143c-40.96 0-83.382857 1.462857-124.342857 1.462858-21.942857 0-52.662857 19.017143-62.902857 38.034285-17.554286 24.868571-26.331429 57.051429-24.868572 84.845715 1.462857 17.554286 5.851429 35.108571 19.017143 45.348571 5.851429 5.851429 14.628571 11.702857 30.72 14.628571 16.091429 2.925714 42.422857 1.462857 59.977143 1.462858 23.405714 0 45.348571 0 61.44-5.851429 8.777143-2.925714 13.165714-8.777143 16.091428-13.165714 7.314286-10.24 7.314286-17.554286 10.24-30.72 4.388571-19.017143 10.24-40.96 14.628572-59.977143-2.925714 2.925714-2.925714 2.925714-2.925714 1.462857M1332.662857 491.52c0-4.388571 0-7.314286 1.462857-11.702857 1.462857-2.925714 4.388571-7.314286 4.388572-10.24 5.851429-10.24 11.702857-19.017143 20.48-23.405714 4.388571-1.462857 7.314286-2.925714 13.165714-4.388572 27.794286-2.925714 62.902857 1.462857 90.697143-1.462857 1.462857-7.314286 2.925714-14.628571 5.851428-21.942857H1357.531429c-2.925714 0-7.314286 0-10.24 1.462857-7.314286 0-16.091429 2.925714-23.405715 5.851429-33.645714 14.628571-51.2 62.902857-49.737143 105.325714 1.462857 23.405714 7.314286 45.348571 21.942858 59.977143 4.388571 4.388571 10.24 8.777143 17.554285 10.24 14.628571 2.925714 35.108571 1.462857 54.125715 1.462857H1433.6c1.462857-8.777143 2.925714-16.091429 5.851429-24.868572h-73.142858c-21.942857-1.462857-35.108571-17.554286-35.108571-58.514285l1.462857-1.462857H1433.6c5.851429 0 8.777143 1.462857 11.702857 0 2.925714-7.314286 2.925714-17.554286 5.851429-24.868572l-118.491429-1.462857zM1252.205714 424.228571c-13.165714-7.314286-42.422857-7.314286-74.605714-5.851428h-87.771429c-14.628571 61.44-29.257143 124.342857-43.885714 185.782857 13.165714 0 38.034286-1.462857 54.125714-1.462857 1.462857 0 5.851429-23.405714 8.777143-30.72 4.388571-17.554286 27.794286-118.491429 32.182857-130.194286 1.462857-1.462857 4.388571 0 7.314286 0H1190.765714c7.314286 0 14.628571 0 19.017143 2.925714 8.777143 8.777143 7.314286 26.331429-4.388571 38.034286-5.851429 5.851429-11.702857 5.851429-19.017143 8.777143-2.925714 0-4.388571 0-7.314286 1.462857-8.777143 0-30.72-1.462857-40.96 0-1.462857 1.462857 4.388571 5.851429 4.388572 8.777143 2.925714 8.777143 13.165714 27.794286 21.942857 46.811429 4.388571 10.24 10.24 21.942857 14.628571 30.72 4.388571 10.24 8.777143 16.091429 14.628572 19.017142 10.24 5.851429 21.942857 4.388571 35.108571 4.388572 8.777143 0 17.554286 1.462857 24.868571 0 0-2.925714-1.462857-4.388571-2.925714-7.314286-1.462857-4.388571-4.388571-10.24-5.851428-13.165714-10.24-20.48-21.942857-43.885714-30.72-62.902857 0-2.925714 10.24-1.462857 24.868571-10.24 0 0 4.388571-2.925714 5.851429-2.925715 1.462857-1.462857 5.851429-5.851429 8.777142-7.314285 8.777143-8.777143 14.628571-21.942857 16.091429-36.571429 1.462857-14.628571-4.388571-30.72-17.554286-38.034286M1512.594286 424.228571c-7.314286 2.925714-14.628571 8.777143-21.942857 16.091429-30.72 30.72-40.96 103.862857-14.628572 141.897143 5.851429 8.777143 14.628571 14.628571 23.405714 17.554286 1.462857 0 4.388571 1.462857 8.777143 2.925714 5.851429 1.462857 13.165714 0 21.942857 0h90.697143c2.925714-5.851429 2.925714-16.091429 5.851429-21.942857v-1.462857h-73.142857c-1.462857 0-4.388571 0-5.851429-1.462858-14.628571-2.925714-26.331429-14.628571-29.257143-38.034285-1.462857-5.851429 0-13.165714 0-21.942857h111.177143c2.925714-8.777143 4.388571-16.091429 7.314286-24.868572H1521.371429c0-13.165714 7.314286-21.942857 10.24-29.257143 5.851429-8.777143 11.702857-14.628571 21.942857-19.017143 10.24-4.388571 26.331429-2.925714 45.348571-2.925714h52.662857c1.462857-7.314286 4.388571-14.628571 5.851429-21.942857v-1.462857h-119.954286c-10.24 2.925714-17.554286 2.925714-24.868571 5.851428M626.102857 476.891429c51.2 0 100.937143 1.462857 150.674286 1.462857h1.462857c0 20.48 0 36.571429-5.851429 52.662857-27.794286 74.605714-95.085714 92.16-159.451428 81.92 4.388571-7.314286 11.702857-27.794286 21.942857-51.2 7.314286-17.554286 17.554286-35.108571 16.091429-49.737143 0-14.628571-10.24-26.331429-24.868572-30.72V476.891429z" fill="#f6f6f6" p-id="2403"></path></svg>